<svg class="icon icon-code" xmlns="http://www.w3.org/2000/svg" viewBox="0 0 34 32"><path d="M11.02 24.98l-.9.9q-.17.17-.4.17t-.42-.18L.98 17.55q-.18-.17-.18-.4t.18-.42L9.3 8.4q.18-.17.4-.17t.43.18l.9.9q.17.18.17.4t-.18.43l-7.02 7 7.02 7.03q.18.18.18.4t-.18.42zM21.57 5.93L14.9 28.98q-.06.24-.27.35t-.42.05l-1.1-.3q-.23-.08-.34-.28t-.05-.44L19.38 5.3q.08-.23.28-.34t.42-.05l1.1.3q.24.1.36.3t.04.43zM33.3 17.55l-8.32 8.32q-.18.18-.4.18t-.42-.18l-.9-.9q-.17-.17-.17-.4t.17-.4l7.02-7.03-7.03-7.02q-.18-.18-.18-.4t.17-.42l.9-.9q.17-.17.4-.17t.4.18l8.33 8.33q.18.18.18.4t-.18.42z"/></svg>