<svg class="icon icon-bullhorn" xmlns="http://www.w3.org/2000/svg" viewBox="0 0 34 32"><path d="M29.7 11.43q.96 0 1.63.67t.67 1.62-.67 1.6-1.62.68v6.86q0 .93-.67 1.6t-1.6.68q-7.45-6.2-14.5-6.78-1.04.34-1.63 1.18t-.55 1.8.7 1.64q-.34.6-.4 1.17t.1 1.04.6.97.86.9 1.1.9q-.5 1.03-1.98 1.48t-3 .2-2.36-1q-.13-.4-.53-1.55t-.57-1.7-.4-1.58-.28-1.8.06-1.76.4-1.97H2.85q-1.18 0-2.02-.85T0 15.43V12q0-1.18.84-2.02t2.02-.84h8.57q7.76 0 16-6.85.93 0 1.6.67t.68 1.6v6.86zM27.44 22.2V5.2q-7.04 5.4-13.72 6.12v4.82q6.75.75 13.73 6.1z"/></svg>