<svg class="icon icon-crop" xmlns="http://www.w3.org/2000/svg" viewBox="0 0 34 32"><path class="path1" d="M11.429 10.286q0 1.429-1 2.429t-2.429 1-2.429-1-1-2.429 1-2.429 2.429-1 2.429 1 1 2.429zM29.714 17.143v8h-25.143v-3.429l5.714-5.714 2.857 2.857 9.143-9.143zM31.429 4.571h-28.571q-0.232 0-0.402 0.17t-0.17 0.402v21.714q0 0.232 0.17 0.402t0.402 0.17h28.571q0.232 0 0.402-0.17t0.17-0.402v-21.714q0-0.232-0.17-0.402t-0.402-0.17zM34.286 5.143v21.714q0 1.179-0.839 2.018t-2.018 0.839h-28.571q-1.179 0-2.018-0.839t-0.839-2.018v-21.714q0-1.179 0.839-2.018t2.018-0.839h28.571q1.179 0 2.018 0.839t0.839 2.018z"></path>
</svg>