<svg class="icon icon-brush" xmlns="http://www.w3.org/2000/svg" viewBox="0 0 24 24"><path class="path1" d="M0 20.016h24v3.984h-24v-3.984zM18.984 11.484c0 0 2.016 2.203 2.016 3.516 0 1.078-0.938 2.016-2.016 2.016s-1.969-0.938-1.969-2.016c0-1.313 1.969-3.516 1.969-3.516zM5.203 9.984h9.609l-4.828-4.781zM16.547 8.953c0.609 0.609 0.609 1.547 0 2.109l-5.484 5.484c-0.281 0.281-0.703 0.469-1.078 0.469s-0.75-0.188-1.031-0.469l-5.531-5.484c-0.609-0.563-0.609-1.5 0-2.109l5.156-5.156-2.391-2.391 1.453-1.406z"></path>

</svg>